<?xml version="1.0" encoding="UTF-8" standalone="no"?>
<svg width="386px" height="88px" viewBox="0 0 386 88" version="1.1" xmlns="http://www.w3.org/2000/svg" xmlns:xlink="http://www.w3.org/1999/xlink" xmlns:sketch="http://www.bohemiancoding.com/sketch/ns">
    <!-- Generator: Sketch 3.3.1 (12005) - http://www.bohemiancoding.com/sketch -->
    <title>cta-email + cta-chat + cta-phone</title>
    <desc>Created with Sketch.</desc>
    <defs></defs>
    <g id="Page-1" stroke="none" stroke-width="1" fill="none" fill-rule="evenodd" sketch:type="MSPage">
        <g id="Main-Frames" sketch:type="MSArtboardGroup" transform="translate(-250.000000, -8115.000000)" fill="#A3A3A3">
            <g id="Lets-get-started" sketch:type="MSLayerGroup" transform="translate(0.000000, 8039.000000)">
                <g id="cta-email-+-cta-chat-+-cta-phone" transform="translate(250.000000, 76.000000)" sketch:type="MSShapeGroup">
                    <g id="cta-email" transform="translate(298.000000, 0.000000)">
                        <path d="M19.414,59.412 L21.414,57.414 C21.776,57.054 22,56.554 22,56 C22,54.896 21.104,54 20,54 C19.448,54 18.948,54.226 18.586,54.586 L16.586,56.586 C16.224,56.95 16,57.45 16,58.002 C16,59.104 16.896,60 18,60 C18.552,60 19.052,59.778 19.414,59.412 L19.414,59.412 Z M32,58.002 C32,56.896 31.104,56 30,56 C29.448,56 28.948,56.226 28.586,56.586 L8.586,76.586 C8.224,76.95 8,77.45 8,78 C8,79.106 8.896,80 10,80 C10.552,80 11.052,79.778 11.414,79.414 L31.414,59.412 C31.776,59.054 32,58.554 32,58.002 L32,58.002 Z M32,66 C31.448,66 30.948,66.226 30.586,66.586 L24.586,72.586 C24.224,72.948 24,73.45 24,74 C24,75.106 24.896,76 26,76 C26.552,76 27.052,75.778 27.414,75.414 L33.414,69.414 C33.776,69.054 34,68.554 34,68 C34,66.896 33.104,66 32,66 L32,66 Z M88,2 C88,0.896 87.104,0 86,0 C85.692,0 85.408,0.082 85.146,0.21 L85.14,0.196 L1.23,36.156 C1.224,36.158 1.218,36.16 1.212,36.162 L1.14,36.196 L1.146,36.208 C0.474,36.53 0,37.206 0,38 C0,38.908 0.616,39.646 1.446,39.89 L1.436,39.92 L34.476,53.526 L48.08,86.564 L48.112,86.556 C48.356,87.384 49.092,88 50,88 C50.796,88 51.47,87.528 51.792,86.854 L51.806,86.862 L51.836,86.786 C51.84,86.782 51.842,86.776 51.844,86.77 L87.806,2.862 L87.784,2.85 C87.91,2.592 88,2.31 88,2 L88,2 Z M7.148,37.97 L77.244,7.926 L35.52,49.654 L7.148,37.97 L7.148,37.97 Z M50.032,80.854 L38.348,52.48 L80.074,10.756 L50.032,80.854 L50.032,80.854 Z"></path>
                    </g>
                    <g id="cta-chat" transform="translate(150.000000, 4.000000)">
                        <path d="M88,27 C88,12.09 73.674,0 56,0 C42.8,0 31.472,6.746 26.582,16.376 C28.16,16.174 29.766,16.042 31.402,16.022 C36.156,8.868 45.398,4 56,4 C71.44,4 84,14.318 84,27 C84,33.176 81.024,38.984 75.618,43.36 C74.37,44.372 73.846,46.03 74.288,47.568 L75.952,53.39 L67.682,50.208 C67.52,51.562 67.22,52.88 66.862,54.18 L82,60 L78.132,46.468 C84.204,41.556 88,34.658 88,27 M32,20 C14.328,20 0,32.09 0,47 C0,54.66 3.796,61.556 9.868,66.47 L6,80 L23.938,73.102 C26.518,73.67 29.206,74 32,74 C49.672,74 64,61.912 64,47 C64,32.09 49.672,20 32,20 M32,70 C29.654,70 27.23,69.73 24.794,69.196 C24.512,69.132 24.222,69.102 23.938,69.102 C23.45,69.102 22.962,69.192 22.5,69.368 L12.048,73.388 L13.712,67.568 C14.152,66.026 13.63,64.37 12.382,63.362 C6.976,58.984 4,53.178 4,47 C4,34.318 16.56,24 32,24 C47.44,24 60,34.318 60,47 C60,59.682 47.44,70 32,70"></path>
                    </g>
                    <g id="cta-phone">
                        <path d="M87.998,69.968 L87.968,69.968 C87.968,68.312 87.296,66.814 86.212,65.726 C85.892,65.406 85.53,65.136 85.144,64.896 L68.212,51.726 C67.124,50.64 65.626,49.968 63.968,49.968 C62.612,49.968 61.374,50.438 60.374,51.2 L55.648,55.96 L55.636,55.95 C54.904,56.768 53.852,57.294 52.668,57.294 C51.316,57.294 50.124,56.618 49.398,55.59 C49.374,55.63 49.34,55.666 49.314,55.708 C42.778,50.964 36.986,45.256 32.25,38.712 C32.296,38.682 32.338,38.646 32.384,38.616 C31.342,37.886 30.656,36.682 30.656,35.312 C30.656,34.088 31.214,33.004 32.076,32.266 L32.07,32.26 L36.772,27.592 C37.536,26.596 38,25.358 38,24 C38,22.344 37.328,20.844 36.242,19.758 L23.072,2.824 C22.832,2.442 22.562,2.078 22.242,1.758 C21.156,0.672 19.656,0 18,0 C10,0 0,9.402 0,21 C0,24.212 0.744,27.244 2.032,29.968 L1.966,30.036 C14,54 34,74 57.966,86.034 L58.032,85.968 C60.754,87.26 63.786,88 67,88 C78.598,88 88,78 88,70 C88,69.99 87.998,69.982 87.998,69.968 M67,84 C64.492,84 62.05,83.446 59.744,82.354 C59.528,82.252 59.304,82.172 59.078,82.114 C36.342,70.514 17.502,51.678 5.9,28.946 C5.836,28.712 5.754,28.48 5.648,28.26 C4.554,25.948 4,23.508 4,21 C4,11.3 12.494,4 18,4 C18.72,4 19.196,4.368 19.414,4.588 C19.464,4.638 19.554,4.742 19.686,4.954 C19.756,5.066 19.834,5.176 19.914,5.282 L33.084,22.214 C33.186,22.346 33.296,22.468 33.414,22.588 C33.632,22.804 34,23.282 34,24 C34,24.354 33.904,24.688 33.71,24.994 L29.252,29.418 C29.232,29.44 29.212,29.458 29.194,29.48 C27.576,31 26.656,33.106 26.656,35.312 C26.656,37.38 27.458,39.348 28.852,40.824 C28.904,40.902 28.954,40.982 29.01,41.056 C33.926,47.85 39.966,53.868 46.966,58.946 C47.02,58.984 47.074,59.022 47.13,59.058 C48.608,60.476 50.59,61.292 52.668,61.292 C54.756,61.292 56.77,60.458 58.264,58.988 C58.34,58.924 58.416,58.852 58.488,58.778 L62.968,54.264 C63.282,54.07 63.618,53.968 63.968,53.968 C64.688,53.968 65.164,54.336 65.382,54.554 C65.5,54.672 65.624,54.782 65.754,54.886 L82.688,68.054 C82.796,68.138 82.91,68.216 83.026,68.29 C83.238,68.422 83.334,68.508 83.382,68.554 C83.602,68.774 83.968,69.248 83.968,69.968 C83.968,70.104 83.976,70.238 83.99,70.372 C83.676,75.88 76.486,84 67,84"></path>
                    </g>
                </g>
            </g>
        </g>
    </g>
</svg>
