<?xml version="1.0" encoding="UTF-8" standalone="no"?>
<svg width="16px" height="16px" viewBox="0 0 16 16" version="1.1" xmlns="http://www.w3.org/2000/svg" xmlns:xlink="http://www.w3.org/1999/xlink" xmlns:sketch="http://www.bohemiancoding.com/sketch/ns">
    <!-- Generator: Sketch 3.5.1 (25234) - http://www.bohemiancoding.com/sketch -->
    <title>close-light</title>
    <desc>Created with Sketch.</desc>
    <defs></defs>
    <g id="Page-1" stroke="none" stroke-width="1" fill="none" fill-rule="evenodd" sketch:type="MSPage">
        <g id="navigation-mobile" sketch:type="MSArtboardGroup" transform="translate(-20.000000, -14.000000)" fill="#F4F3F2">
            <g id="close-light" sketch:type="MSLayerGroup" transform="translate(20.000000, 14.000000)">
                <path d="M15.8455005,0.900104433 C15.9414695,0.80466278 16,0.672837291 16,0.527301953 C16,0.236231275 15.764296,0 15.472698,0 C15.32769,0 15.1958645,0.0590578187 15.0998956,0.155026774 L8,7.25492234 L0.900104433,0.155026774 C0.80466278,0.0590578187 0.672837291,1.79841875e-13 0.527301953,1.79841875e-13 C0.235703973,1.79841875e-13 3.55271368e-15,0.236231275 3.55271368e-15,0.527301953 C3.55271368e-15,0.672837291 0.0585305167,0.80466278 0.154499472,0.900631735 L7.25439504,8 L0.154499472,15.1004229 C0.0585305167,15.1953372 3.55271368e-15,15.32769 3.55271368e-15,15.472698 C3.55271368e-15,15.764296 0.235703973,16 0.527301953,16 C0.672837291,16 0.80466278,15.9414695 0.900104433,15.8455005 L8,8.74560496 L15.0998956,15.8455005 C15.1958645,15.9414695 15.32769,16 15.472698,16 C15.764296,16 16,15.764296 16,15.472698 C16,15.32769 15.9414695,15.1953372 15.8455005,15.1004229 L8.74560496,8 L15.8455005,0.900104433 Z" id="+" sketch:type="MSShapeGroup"></path>
            </g>
        </g>
    </g>
</svg>