<?xml version="1.0" encoding="UTF-8" standalone="no"?>
<svg width="16px" height="22px" viewBox="0 0 16 22" version="1.1" xmlns="http://www.w3.org/2000/svg" xmlns:xlink="http://www.w3.org/1999/xlink" xmlns:sketch="http://www.bohemiancoding.com/sketch/ns">
    <!-- Generator: Sketch 3.5.1 (25234) - http://www.bohemiancoding.com/sketch -->
    <title>download</title>
    <desc>Created with Sketch.</desc>
    <defs></defs>
    <g id="Page-1" stroke="none" stroke-width="1" fill="none" fill-rule="evenodd" sketch:type="MSPage">
        <g id="profile-tablet" sketch:type="MSArtboardGroup" transform="translate(-413.000000, -11.000000)" fill="#F4F4F3">
            <g id="topbar" sketch:type="MSLayerGroup">
                <g id="contact-info" transform="translate(14.000000, 11.000000)" sketch:type="MSShapeGroup">
                    <g id="download" transform="translate(399.000000, 0.000000)">
                        <path d="M4,13 C3.724,13 3.5,13.2235 3.5,13.5 C3.5,13.6385 3.556,13.7635 3.6465,13.8535 L7.6465,17.8535 C7.737,17.9445 7.862,18 8,18 C8.138,18 8.263,17.9445 8.3535,17.8535 L12.3535,13.8535 C12.444,13.7635 12.5,13.6385 12.5,13.5 C12.5,13.2235 12.276,13 12,13 C11.862,13 11.737,13.056 11.6465,13.1465 L8.5,16.293 L8.5,0.5 C8.5,0.224 8.276,0 8,0 C7.724,0 7.5,0.224 7.5,0.5 L7.5,16.293 L4.3535,13.1465 C4.263,13.056 4.138,13 4,13 M15.5,7 L10,7 C9.724,7 9.5,7.224 9.5,7.5 C9.5,7.7765 9.724,8 10,8 L15,8 L15,21 L1,21 L1,8 L6,8 C6.276,8 6.5,7.7765 6.5,7.5 C6.5,7.224 6.276,7 6,7 L0.5,7 C0.224,7 0,7.224 0,7.5 L0,21.5 C0,21.7765 0.224,22 0.5,22 L15.5,22 C15.776,22 16,21.7765 16,21.5 L16,7.5 C16,7.224 15.776,7 15.5,7"></path>
                    </g>
                </g>
            </g>
        </g>
    </g>
</svg>