<?xml version="1.0" encoding="UTF-8" standalone="no"?>
<svg width="38px" height="38px" viewBox="0 0 38 38" version="1.1" xmlns="http://www.w3.org/2000/svg" xmlns:xlink="http://www.w3.org/1999/xlink" xmlns:sketch="http://www.bohemiancoding.com/sketch/ns">
    <!-- Generator: Sketch 3.5.1 (25234) - http://www.bohemiancoding.com/sketch -->
    <title>logomark</title>
    <desc>Created with Sketch.</desc>
    <defs></defs>
    <g id="Page-1" stroke="none" stroke-width="1" fill="none" fill-rule="evenodd" sketch:type="MSPage">
        <g id="research-desktop" sketch:type="MSArtboardGroup" transform="translate(-701.000000, -1157.000000)" fill="#BABABA">
            <g id="copyright" sketch:type="MSLayerGroup" transform="translate(589.000000, 1157.000000)">
                <g id="logomark" transform="translate(112.000000, 0.000000)" sketch:type="MSShapeGroup">
                    <path d="M25.25,33.206125 L25.975875,32.838875 C30.457875,30.570375 33.579375,26.266 34.325625,21.324125 L34.41225,20.750875 L33.8325,20.7495 C30.083125,20.740375 27.831375,19.527625 26.015125,18.391625 L25.25,17.913 L25.25,33.206125 Z M12.024125,5.161 C6.76625,7.82175 3.5,13.124625 3.5,19 C3.5,24.875375 6.76625,30.178 12.024125,32.838875 L12.75,33.206125 L12.75,4.793625 L12.024125,5.161 Z M19,3.5 C18.223375,3.5 17.44125,3.558625 16.67525,3.674375 L16.25,3.738625 L16.25,34.261375 L16.675375,34.325625 C17.441375,34.441375 18.2235,34.5 19,34.5 C19.774,34.5 20.55625,34.441125 21.32475,34.324875 L21.75,34.260625 L21.75,3.684375 L21.3105,3.630625 C20.589375,3.54275 19.833625,3.5 19,3.5 L19,3.5 Z M19,38 C8.523375,38 0,29.476625 0,19 C0,8.523375 8.523375,0 19,0 C24.512375,0 27.311,1.79525 29.559875,3.23775 C31.34975,4.386 32.908875,5.386125 35.75,5.490875 L35.75,8.992625 C31.872125,8.879 29.644625,7.4505 27.670375,6.184 C27.13025,5.8375 26.572,5.479375 25.99425,5.155875 L25.25,4.73925 L25.25,13.808875 L25.502625,13.95275 C26.113875,14.30075 26.682875,14.66575 27.184875,14.98775 C29.077,16.201625 30.711125,17.25 33.875,17.25 L37.91775,17.25 C37.972375,17.836625 38,18.4235 38,19 C38,29.476625 29.476625,38 19,38 L19,38 Z"></path>
                </g>
            </g>
        </g>
    </g>
</svg>