<?xml version="1.0" encoding="UTF-8" standalone="no"?>
<svg width="22px" height="22px" viewBox="0 0 22 22" version="1.1" xmlns="http://www.w3.org/2000/svg" xmlns:xlink="http://www.w3.org/1999/xlink" xmlns:sketch="http://www.bohemiancoding.com/sketch/ns">
    <!-- Generator: Sketch 3.5.1 (25234) - http://www.bohemiancoding.com/sketch -->
    <title>navigationbar-logomark</title>
    <desc>Created with Sketch.</desc>
    <defs></defs>
    <g id="Page-1" stroke="none" stroke-width="1" fill="none" fill-rule="evenodd" sketch:type="MSPage">
        <g id="profile-mobile" sketch:type="MSArtboardGroup" transform="translate(-335.000000, -11.000000)" fill="#F4F3F2">
            <g id="navigationbar" sketch:type="MSLayerGroup">
                <g id="navigationbar-logomark" transform="translate(335.000000, 11.000000)" sketch:type="MSShapeGroup">
                    <path d="M14.6184211,19.2245987 L15.0386645,19.0119803 C17.6335066,17.6986382 19.4406908,15.2066316 19.8727303,12.3455461 L19.9228816,12.0136645 L19.5872368,12.0128684 C17.4165461,12.0075855 16.1129013,11.3054671 15.0613882,10.6477829 L14.6184211,10.3706842 L14.6184211,19.2245987 Z M6.96133553,2.98794737 C3.91730263,4.52838158 2.02631579,7.59846711 2.02631579,11 C2.02631579,14.4015329 3.91730263,17.4714737 6.96133553,19.0119803 L7.38157895,19.2245987 L7.38157895,2.77525658 L6.96133553,2.98794737 Z M11,2.02631579 C10.550375,2.02631579 10.0975658,2.06025658 9.65409211,2.12726974 L9.40789474,2.16446711 L9.40789474,19.8355329 L9.65416447,19.8727303 C10.0976382,19.9397434 10.5504474,19.9736842 11,19.9736842 C11.4481053,19.9736842 11.9009868,19.9395987 12.3459079,19.8722961 L12.5921053,19.8350987 L12.5921053,2.13305921 L12.3376579,2.10194079 C11.9201645,2.05106579 11.482625,2.02631579 11,2.02631579 L11,2.02631579 Z M11,22 C4.93458553,22 0,17.0654145 0,11 C0,4.93458553 4.93458553,0 11,0 C14.191375,0 15.8116316,1.03935526 17.1136118,1.87448684 C18.1498553,2.53926316 19.0525066,3.11828289 20.6973684,3.17892763 L20.6973684,5.20625658 C18.4522829,5.14047368 17.1626776,4.31344737 16.0196908,3.58021053 C15.7069868,3.37960526 15.3837895,3.17226974 15.0493026,2.98498026 L14.6184211,2.74377632 L14.6184211,7.99461184 L14.7646776,8.07790789 C15.1185592,8.27938158 15.4479803,8.49069737 15.7386118,8.67711842 C16.8340526,9.37988816 17.780125,9.98684211 19.6118421,9.98684211 L21.9523816,9.98684211 C21.9840066,10.3264671 22,10.6662368 22,11 C22,17.0654145 17.0654145,22 11,22 L11,22 Z"></path>
                </g>
            </g>
        </g>
    </g>
</svg>