<?xml version="1.0" encoding="UTF-8" standalone="no"?>
<svg width="22px" height="16px" viewBox="0 0 22 16" version="1.1" xmlns="http://www.w3.org/2000/svg" xmlns:xlink="http://www.w3.org/1999/xlink" xmlns:sketch="http://www.bohemiancoding.com/sketch/ns">
    <!-- Generator: Sketch 3.5.1 (25234) - http://www.bohemiancoding.com/sketch -->
    <title>envelope</title>
    <desc>Created with Sketch.</desc>
    <defs></defs>
    <g id="Page-1" stroke="none" stroke-width="1" fill="none" fill-rule="evenodd" sketch:type="MSPage">
        <g id="profile-tablet" sketch:type="MSArtboardGroup" transform="translate(-189.000000, -14.000000)" fill="#777777">
            <g id="topbar" sketch:type="MSLayerGroup">
                <g id="contact-info" transform="translate(14.000000, 11.000000)" sketch:type="MSShapeGroup">
                    <g id="envelope" transform="translate(175.000000, 3.000000)">
                        <path d="M20,0 L2,0 C0.8955,0 0,0.8955 0,2 L0,14 C0,15.1045 0.8955,16 2,16 L20,16 C21.1045,16 22,15.1045 22,14 L22,2 C22,0.8955 21.1045,0 20,0 M2,1 L20,1 C20.1175,1 20.2285,1.024 20.3335,1.0615 L11.6775,9.717 C11.4965,9.898 11.256,9.998 11,9.998 C10.744,9.998 10.5035,9.898 10.322,9.717 L1.667,1.0615 C1.7715,1.024 1.883,1 2,1 M1,14 L1,2 C1,1.9405 1.008,1.883 1.0175,1.826 L7.1915,8 L1.0175,14.174 C1.008,14.117 1,14.0595 1,14 M20,15 L2,15 C1.883,15 1.7715,14.976 1.667,14.939 L7.8985,8.707 L9.615,10.424 C9.998,10.8065 10.499,10.998 11,10.998 C11.5015,10.998 12.0025,10.8065 12.3845,10.424 L14.1015,8.707 L20.334,14.939 C20.2285,14.976 20.1175,15 20,15 M21,14 C21,14.0595 20.992,14.117 20.9825,14.174 L14.8085,8 L20.9825,1.826 C20.992,1.883 21,1.9405 21,2 L21,14"></path>
                    </g>
                </g>
            </g>
        </g>
    </g>
</svg>