<?xml version="1.0" encoding="UTF-8" standalone="no"?>
<svg width="22px" height="18px" viewBox="0 0 22 18" version="1.1" xmlns="http://www.w3.org/2000/svg" xmlns:xlink="http://www.w3.org/1999/xlink" xmlns:sketch="http://www.bohemiancoding.com/sketch/ns">
    <!-- Generator: Sketch 3.5.1 (25234) - http://www.bohemiancoding.com/sketch -->
    <title>menu-hamburger</title>
    <desc>Created with Sketch.</desc>
    <defs></defs>
    <g id="Page-1" stroke="none" stroke-width="1" fill="none" fill-rule="evenodd" sketch:type="MSPage">
        <g id="profile-mobile" sketch:type="MSArtboardGroup" transform="translate(-17.000000, -13.000000)" fill="#F4F4F3">
            <g id="navigationbar" sketch:type="MSLayerGroup">
                <g id="menu-hamburger" transform="translate(17.000000, 13.000000)" sketch:type="MSShapeGroup">
                    <path d="M20,7.00038891 L2,7.00038891 C0.8955,7.00038891 0,7.89493861 0,9.00050003 C0,10.1040613 0.8955,10.9996111 2,10.9996111 L20,10.9996111 C21.1045,10.9996111 22,10.1040613 22,9.00050003 C22,7.89493861 21.1045,7.00038891 20,7.00038891 M20,9.99955553 L2,9.99955553 C1.448,9.99955553 1,9.55203067 1,9.00050003 C1,8.4474693 1.448,7.99944441 2,7.99944441 L20,7.99944441 C20.552,7.99944441 21,8.4474693 21,9.00050003 C21,9.55203067 20.552,9.99955553 20,9.99955553 M2,3.99922218 L20,3.99922218 C21.1045,3.99922218 22,3.10367243 22,1.99911106 C22,0.894549697 21.1045,0 20,0 L2,0 C0.8955,0 0,0.894549697 0,1.99911106 C0,3.10367243 0.8955,3.99922218 2,3.99922218 M2,1.00005556 L20,1.00005556 C20.552,1.00005556 21,1.44758042 21,1.99911106 C21,2.55164176 20.552,2.99916662 20,2.99916662 L2,2.99916662 C1.448,2.99916662 1,2.55164176 1,1.99911106 C1,1.44758042 1.448,1.00005556 2,1.00005556 M20,13.9997778 L2,13.9997778 C0.8955,13.9997778 0,14.8958275 0,15.9998889 C0,17.1049503 0.8955,18 2,18 L20,18 C21.1045,18 22,17.1049503 22,15.9998889 C22,14.8958275 21.1045,13.9997778 20,13.9997778 M20,16.9999444 L2,16.9999444 C1.448,16.9999444 1,16.5519196 1,15.9998889 C1,15.4478582 1.448,14.9998333 2,14.9998333 L20,14.9998333 C20.552,14.9998333 21,15.4478582 21,15.9998889 C21,16.5519196 20.552,16.9999444 20,16.9999444"></path>
                </g>
            </g>
        </g>
    </g>
</svg>