<?xml version="1.0" encoding="UTF-8" standalone="no"?>
<svg width="22px" height="22px" viewBox="0 0 22 22" version="1.1" xmlns="http://www.w3.org/2000/svg" xmlns:xlink="http://www.w3.org/1999/xlink" xmlns:sketch="http://www.bohemiancoding.com/sketch/ns">
    <!-- Generator: Sketch 3.5.1 (25234) - http://www.bohemiancoding.com/sketch -->
    <title>phone</title>
    <desc>Created with Sketch.</desc>
    <defs></defs>
    <g id="Page-1" stroke="none" stroke-width="1" fill="none" fill-rule="evenodd" sketch:type="MSPage">
        <g id="profile-tablet" sketch:type="MSArtboardGroup" transform="translate(-14.000000, -11.000000)" fill="#777777">
            <g id="topbar" sketch:type="MSLayerGroup">
                <g id="contact-info" transform="translate(14.000000, 11.000000)" sketch:type="MSShapeGroup">
                    <g id="phone">
                        <path d="M21.9995,17.492 L21.992,17.492 C21.992,17.078 21.824,16.7035 21.553,16.4315 C21.473,16.3515 21.3825,16.284 21.286,16.224 L17.053,12.9315 C16.781,12.6605 16.4065,12.492 15.992,12.492 C15.653,12.492 15.3435,12.6095 15.0935,12.8005 L13.912,13.9905 L13.909,13.9875 C13.726,14.192 13.463,14.3235 13.167,14.3235 C12.829,14.3235 12.531,14.1545 12.3495,13.8975 C12.3435,13.9075 12.335,13.9165 12.329,13.927 C10.6945,12.7415 9.2465,11.314 8.0625,9.6785 C8.074,9.6705 8.0845,9.6615 8.096,9.654 C7.8355,9.472 7.664,9.1705 7.664,8.828 C7.664,8.522 7.8035,8.251 8.019,8.067 L8.0175,8.065 L9.1935,6.898 C9.384,6.649 9.5,6.3395 9.5,6 C9.5,5.586 9.332,5.211 9.0605,4.9395 L5.768,0.7065 C5.708,0.6105 5.6405,0.5195 5.5605,0.4395 C5.289,0.1685 4.914,0 4.5,0 C2.5,0 0,2.3505 0,5.25 C0,6.053 0.186,6.8115 0.508,7.4925 L0.4915,7.5095 C3.5,13.5 8.5,18.5 14.4915,21.5085 L14.508,21.492 C15.1885,21.815 15.9465,22 16.75,22 C19.6495,22 22,19.5 22,17.5 C22,17.4975 21.9995,17.4955 21.9995,17.492 M16.75,21 C16.123,21 15.5125,20.8615 14.936,20.5885 C14.882,20.563 14.826,20.543 14.7695,20.529 C9.0855,17.629 4.3755,12.9195 1.4755,7.2365 C1.459,7.178 1.4385,7.12 1.412,7.065 C1.1385,6.487 1,5.877 1,5.25 C1,2.825 3.1235,1 4.5,1 C4.68,1 4.799,1.092 4.8535,1.147 C4.866,1.1595 4.8885,1.1855 4.9215,1.239 C4.939,1.2665 4.9585,1.294 4.9785,1.3205 L8.271,5.554 C8.2965,5.5865 8.324,5.6175 8.3535,5.647 C8.408,5.701 8.5,5.8205 8.5,6 C8.5,6.0885 8.476,6.172 8.4275,6.249 L7.313,7.3545 C7.308,7.36 7.303,7.3645 7.2985,7.37 C6.894,7.75 6.664,8.277 6.664,8.828 C6.664,9.345 6.8645,9.837 7.213,10.206 C7.226,10.2255 7.2385,10.2455 7.2525,10.2645 C8.4815,11.963 9.9915,13.467 11.7415,14.7365 C11.755,14.746 11.7685,14.7555 11.7825,14.765 C12.152,15.119 12.6475,15.323 13.167,15.323 C13.689,15.323 14.1925,15.1145 14.566,14.747 C14.585,14.731 14.604,14.713 14.622,14.6945 L15.742,13.566 C15.8205,13.5175 15.9045,13.4925 15.992,13.4925 C16.172,13.4925 16.291,13.584 16.3455,13.639 C16.375,13.6685 16.406,13.6955 16.4385,13.722 L20.672,17.014 C20.699,17.0345 20.7275,17.0545 20.7565,17.0725 C20.8095,17.1055 20.8335,17.127 20.8455,17.1385 C20.9005,17.1935 20.992,17.3125 20.992,17.492 C20.992,17.526 20.994,17.5595 20.9975,17.5935 C20.919,18.97 19.1215,21 16.75,21"></path>
                    </g>
                </g>
            </g>
        </g>
    </g>
</svg>